<svg t="1605159151733" class="icon" viewBox="0 0 1024 1024" version="1.1" xmlns="http://www.w3.org/2000/svg" p-id="4383" width="200" height="200"><path d="M0 968.610909a55.668364 55.668364 0 0 1 55.063273-55.342545h913.92c30.394182 0 55.016727 24.669091 55.016727 55.063272v0.325819A55.668364 55.668364 0 0 1 968.983273 1024H55.063273C24.622545 1024 0 999.330909 0 968.983273v-0.325818z m910.196364-138.333091h-140.008728a41.053091 41.053091 0 0 1-41.611636-40.448V312.971636c0-22.388364 18.618182-40.494545 41.611636-40.494545h140.008728c22.993455 0 41.611636 18.152727 41.611636 40.494545v476.858182c0 22.341818-18.618182 40.448-41.611636 40.448z m-350.068364 0H420.119273a41.053091 41.053091 0 0 1-41.611637-40.448V40.448c0-22.341818 18.618182-40.448 41.611637-40.448h140.008727c22.993455 0 41.611636 18.152727 41.611636 40.448v749.381818c0 22.341818-18.618182 40.448-41.611636 40.448z m-350.068364 0H70.004364a41.053091 41.053091 0 0 1-41.565091-40.448V449.163636c0-22.388364 18.618182-40.448 41.565091-40.448h140.055272c22.946909 0 41.611636 18.152727 41.611637 40.494546v340.573091c0 22.341818-18.618182 40.448-41.611637 40.448z" p-id="4384"></path></svg>