<svg t="1605249810086" class="icon" viewBox="0 0 1024 1024" version="1.1" xmlns="http://www.w3.org/2000/svg" p-id="4206" width="200" height="200"><path d="M512 343.438c-101.49 0-179.086 77.597-179.086 179.086S410.51 701.611 512 701.611s179.086-77.597 179.086-179.087S613.49 343.438 512 343.438z m0 298.496a119.751 119.751 0 0 1-119.41-119.41c0-65.65 53.76-119.41 119.41-119.41s119.41 53.76 119.41 119.467A119.751 119.751 0 0 1 512 641.877z" p-id="4207"></path><path d="M628.338 56.889H395.662c-17.465 0-29.127 11.662-29.127 29.127v110.592c-23.267 11.605-46.535 23.268-63.943 34.873l-93.127-58.197a30.663 30.663 0 0 0-40.733 11.662L52.395 388.55c-11.606 17.522-5.803 34.987 11.662 40.79l93.07 58.197v69.973l-93.07 58.14c-17.465 5.86-23.325 23.325-11.662 40.733l116.337 203.72c5.86 11.661 23.325 17.464 40.733 5.859l93.127-58.198c17.408 11.606 40.676 29.07 63.943 34.873V959.09c0 17.465 11.662 29.07 29.127 29.07h232.676c17.465 0 29.127-11.605 29.127-29.07V848.498c23.267-11.662 46.535-23.325 63.943-34.93l93.127 58.197a30.663 30.663 0 0 0 40.733-11.662l116.337-203.662c11.606-17.522 5.803-34.93-11.662-40.79l-93.07-58.14v-69.916l93.07-58.198c11.662-5.802 17.465-23.324 11.662-40.732L855.268 184.889c-5.86-11.662-23.325-17.465-40.733-11.662l-93.184 58.31c-17.408-11.605-40.675-29.07-63.943-34.872V86.016c0-17.465-11.662-29.127-29.127-29.127z m-203.606 58.197h174.536v98.987c0 11.605 5.802 23.267 17.464 29.07a370.916 370.916 0 0 1 81.408 46.592c11.663 5.803 23.325 5.803 34.93 0l87.268-52.395 87.267 151.325-87.267 52.338c-11.662 11.662-17.465 23.324-11.662 34.986 0 17.465 5.86 29.07 5.86 46.535 0 17.465 0 29.128-5.86 46.592 0 11.606 5.86 23.268 11.662 29.07l87.267 52.395-87.267 151.325-87.268-52.338a37.092 37.092 0 0 0-34.93 0 370.916 370.916 0 0 1-81.408 46.535c-11.662 11.662-17.464 23.325-17.464 34.93v98.987H424.732v-98.987a32.028 32.028 0 0 0-17.464-29.127 370.916 370.916 0 0 1-81.408-46.535 37.092 37.092 0 0 0-34.93 0l-87.268 46.535-87.267-151.325 87.267-52.337c11.662-5.86 17.465-17.522 11.662-29.128 0-17.464-5.86-29.127-5.86-46.592 0-17.464 0-29.07 5.86-46.535 5.803-11.662 0-23.324-11.662-29.127l-87.267-52.338L203.662 243.2l87.268 52.338c11.662 5.802 23.324 5.802 34.93 0a370.916 370.916 0 0 1 81.408-46.592 32.028 32.028 0 0 0 17.464-29.07v-104.79z" p-id="4208"></path></svg>