<svg t="1605261207323" class="icon" viewBox="0 0 1154 1024" version="1.1" xmlns="http://www.w3.org/2000/svg" p-id="2892" width="200" height="200"><path d="M1122.164251 1024h-1089.855072a28.238325 28.238325 0 0 0-3.117553-1.288245C10.37037 1017.674718-2.086957 999.94847 0.322061 981.603865a38.10628 38.10628 0 0 1 38.3124-33.739131c15.008052-0.090177 30.016103 0 45.024154 0h6.505636v-8.760064-722.061192c0-42.331723-0.206119-84.650564 0.064412-126.982286 0.322061-49.597424 40.115942-89.84219 89.571659-89.906603q266.666667-0.322061 533.333333-0.064412a81.236715 81.236715 0 0 1 35.25926 7.549114c35.774557 17.030596 54.222222 45.52657 54.338164 85.165862 0.231884 78.68599 0.077295 157.384863 0.077295 236.070853v8h7.561996c58.293076 0 116.586151-0.077295 174.89211 0.090178a105.971014 105.971014 0 0 1 22.904992 2.035426c42.731079 9.648953 71.085346 45.809984 71.085346 90.318841q0.064412 255.072464 0 510.235105v8.322061c12.882448 0 24.953301-0.077295 37.037037 0a38.05475 38.05475 0 0 1 36.89533 28.508856c0.347826 1.288245 0.863124 2.512077 1.288245 3.761675v11.594203c-2.666667 8.373591-5.436393 17.004831-12.882448 22.20934-5.938808 4.083736-12.908213 6.73752-19.426731 10.048309zM726.441224 947.452496v-8.309179l0.412238-608.979066q0.064412-117.758454 0-235.516908c0-13.655395-4.869565-18.563607-18.267311-18.563607H184.438003c-13.075684 0-18.228663 5.152979-18.228663 18.035427v853.333333z m276.79227 0v-6.144928-510.750402c0-12.676329-5.152979-17.726248-17.893719-17.726248H809.89372c-2.048309 0-4.083736 0.167472-6.286635 0.270531v534.376812z" p-id="2893"></path><path d="M317.101449 254.222222h263.239936v75.375202H317.101449zM580.341385 526.080515H317.088567v-75.388083h263.252818zM580.457327 647.175523v75.130435H317.152979v-75.130435z" p-id="2894"></path></svg>